<svg width="48" height="78" viewBox="0 0 48 78" fill="none" xmlns="http://www.w3.org/2000/svg">
<path d="M47.1961 65.3041C47.1959 64.7834 47.074 64.2699 46.8401 63.8046C46.6062 63.3393 46.2668 62.9352 45.849 62.6243C45.4312 62.3135 44.9465 62.1046 44.4337 62.0143C43.9208 61.924 43.3939 61.9548 42.8951 62.1042L38.1033 63.495C38.1429 62.9478 38.0483 62.3991 37.8277 61.8967C37.6072 61.3944 37.2673 60.9534 36.8377 60.6122C37.638 59.6485 38.0238 58.4069 37.9108 57.1593C37.7977 55.9118 37.1949 54.7598 36.2344 53.9557C36.7601 53.1348 36.9467 52.1418 36.7547 51.1861L42.7531 49.4388C43.3941 49.2422 43.9554 48.8457 44.355 48.3073C44.7547 47.7689 44.9716 47.1168 44.9742 46.4463V44.4143C44.974 43.9266 44.8598 43.4456 44.6407 43.0099C44.4215 42.5741 44.1036 42.1957 43.7121 41.9047C43.3207 41.6137 42.8667 41.4182 42.3863 41.3339C41.9059 41.2495 41.4125 41.2787 40.9453 41.419L36.7969 42.6213C36.8149 41.9537 36.6177 41.298 36.2344 40.751C36.8018 40.2755 37.2498 39.6736 37.5426 38.9937C37.8353 38.3137 37.9646 37.5746 37.9201 36.8357C37.8756 36.0967 37.6585 35.3785 37.2863 34.7386C36.9141 34.0987 36.397 33.5549 35.7767 33.1509C36.0939 32.4643 36.1938 31.6972 36.0628 30.9523L41.6393 29.3224C42.2603 29.1392 42.8048 28.7588 43.1904 28.2387C43.5761 27.7186 43.7819 27.0871 43.7768 26.4396V24.5299C43.7774 24.0608 43.6681 23.598 43.4578 23.1787C43.2475 22.7593 42.942 22.395 42.5657 22.1148C42.1894 21.8346 41.7528 21.6464 41.2907 21.5652C40.8286 21.484 40.354 21.512 39.9047 21.6471L36.0973 22.751C36.0927 22.2939 35.983 21.844 35.7767 21.4362C36.4491 20.9985 36.9994 20.3971 37.3757 19.6884C37.752 18.9798 37.942 18.1871 37.928 17.3849C37.9139 16.5826 37.6962 15.7971 37.2953 15.1021C36.8944 14.407 36.3234 13.8253 35.636 13.4114C35.8772 12.7949 35.95 12.1254 35.847 11.4715L41.1063 9.93656C41.7073 9.75704 42.2341 9.38788 42.6079 8.88426C42.9818 8.38063 43.1827 7.76956 43.1806 7.14234V5.32758C43.1806 4.87167 43.0739 4.42209 42.8692 4.01473C42.6645 3.60738 42.3674 3.25355 42.0015 2.98151C41.6357 2.70946 41.2113 2.52675 40.7622 2.44796C40.3132 2.36917 39.8519 2.39649 39.4153 2.52773L35.8688 3.55219C35.8456 2.79434 35.5286 2.07521 34.9849 1.54682C34.4411 1.01842 33.7132 0.722174 32.955 0.720703H15.8691C15.1005 0.72157 14.3631 1.02507 13.8166 1.56552C13.2701 2.10597 12.9584 2.83989 12.949 3.60844L9.24281 2.53477C8.80518 2.39876 8.3417 2.36754 7.88978 2.44362C7.43786 2.5197 7.01016 2.70096 6.64118 2.97277C6.2722 3.24457 5.97229 3.59931 5.76565 4.00836C5.55901 4.4174 5.45141 4.8693 5.45156 5.32758V7.14164C5.45012 7.7702 5.65203 8.38236 6.02713 8.88673C6.40224 9.39109 6.93042 9.7606 7.53281 9.94008L12.9694 11.5256C12.8807 12.1282 12.942 12.7433 13.148 13.3165C12.46 13.6955 11.8772 14.2397 11.4519 14.9001C11.0267 15.5605 10.7724 16.3163 10.712 17.0994C10.6516 17.8826 10.787 18.6684 11.1059 19.3862C11.4249 20.104 11.9174 20.7311 12.5391 21.2112C12.2509 21.6776 12.0971 22.2147 12.0947 22.763V22.8066L8.10938 21.652C7.65949 21.5139 7.18345 21.4833 6.71959 21.5627C6.25572 21.6422 5.81699 21.8294 5.43871 22.1094C5.06043 22.3894 4.75318 22.7542 4.54169 23.1747C4.33021 23.5951 4.22039 24.0593 4.22109 24.5299V26.4424C4.21682 27.0905 4.42364 27.7223 4.81029 28.2424C5.19694 28.7625 5.7424 29.1426 6.36422 29.3252L12.1298 31.0127C11.9862 31.8239 12.131 32.6597 12.5391 33.3752C12.0001 33.7906 11.5571 34.3175 11.2405 34.9198C10.9238 35.5222 10.7409 36.1857 10.7043 36.8652C10.6676 37.5447 10.7781 38.2241 11.0281 38.857C11.2782 39.4899 11.6619 40.0614 12.153 40.5323C11.6424 41.1296 11.3782 41.8989 11.4141 42.6839L7.07156 41.4239C6.60381 41.281 6.10908 41.2497 5.62704 41.3324C5.145 41.4152 4.68905 41.6097 4.29573 41.9004C3.90242 42.1911 3.58268 42.57 3.36214 43.0065C3.1416 43.4431 3.0264 43.9252 3.02578 44.4143V46.4463C3.02886 47.1183 3.24697 47.7717 3.64816 48.3108C4.04936 48.8499 4.61258 49.2464 5.25539 49.4423L11.4513 51.2459C11.3476 51.7556 11.3568 52.2819 11.4782 52.7877C11.5997 53.2936 11.8305 53.7666 12.1545 54.1737C11.3205 54.9723 10.8082 56.0489 10.7146 57.1997C10.6209 58.3506 10.9523 59.4958 11.6461 60.4188C11.136 60.7598 10.7264 61.231 10.46 61.7837C10.1935 62.3364 10.0799 62.9504 10.1309 63.5618L5.12039 62.1091C4.6209 61.9566 4.09261 61.9233 3.57792 62.0118C3.06322 62.1004 2.57643 62.3083 2.15661 62.6189C1.73679 62.9296 1.39561 63.3343 1.16045 63.8006C0.925293 64.2669 0.802696 64.7819 0.802496 65.3041V67.5682C0.801134 68.2864 1.03182 68.9859 1.46019 69.5623C1.88856 70.1388 2.4917 70.5615 3.17976 70.7674L10.1801 72.8065C10.1356 73.1823 10.1192 73.5609 10.1309 73.9392C10.132 74.8247 10.4842 75.6735 11.1103 76.2996C11.7364 76.9257 12.5853 77.2779 13.4707 77.2791H34.7635C36.709 77.2791 38.438 75.7617 38.0492 72.7397L44.8392 70.7611C45.5231 70.5526 46.1215 70.1294 46.546 69.5542C46.9705 68.979 47.1985 68.2824 47.1961 67.5675V65.3041ZM15.4395 59.8704C15.1394 59.8699 14.8423 59.8104 14.5652 59.6951C14.2882 59.5798 14.0365 59.4111 13.8246 59.1986C13.3967 58.7694 13.1569 58.1878 13.1578 57.5817C13.1587 56.9757 13.4004 56.3948 13.8296 55.9669C14.2588 55.539 14.8404 55.2991 15.4465 55.3001H33.1849C33.485 55.2996 33.7823 55.3583 34.0597 55.4727C34.3371 55.5871 34.5893 55.755 34.8018 55.9669C35.0143 56.1788 35.183 56.4304 35.2983 56.7075C35.4136 56.9846 35.4731 57.2816 35.4736 57.5817C35.4741 57.8818 35.4154 58.1791 35.301 58.4565C35.1866 58.7339 35.0187 58.9861 34.8068 59.1986C34.5949 59.4111 34.3433 59.5798 34.0662 59.6951C33.7891 59.8104 33.4921 59.8699 33.192 59.8704H15.4395ZM41.6485 43.7766C41.7482 43.7465 41.8536 43.7401 41.9563 43.7579C42.059 43.7757 42.1561 43.8172 42.2399 43.8791C42.3238 43.941 42.392 44.0217 42.4392 44.1146C42.4864 44.2075 42.5113 44.3101 42.5119 44.4143V46.4463C42.5125 46.5865 42.4686 46.7233 42.3867 46.837C42.3047 46.9506 42.1888 47.0354 42.0556 47.0791L35.9229 48.8665C35.0187 47.4848 35.3492 46.6369 35.7471 46.054C35.8967 45.8351 36.0324 45.6071 36.1535 45.3712L41.6485 43.7766ZM13.1613 37.1208C13.1621 36.5149 13.4031 35.9341 13.8315 35.5058C14.2598 35.0774 14.8407 34.8364 15.4465 34.8356H33.1849C33.791 34.8356 34.3722 35.0764 34.8008 35.5049C35.2293 35.9335 35.4701 36.5147 35.4701 37.1208C35.4701 37.7268 35.2293 38.3081 34.8008 38.7366C34.3722 39.1652 33.791 39.4059 33.1849 39.4059H15.4465C14.8407 39.4052 14.2598 39.1642 13.8315 38.7358C13.4031 38.3074 13.1621 37.7266 13.1613 37.1208ZM40.6106 24.0047C40.6926 23.9794 40.7794 23.9738 40.864 23.9883C40.9485 24.0028 41.0285 24.037 41.0974 24.0881C41.1662 24.1393 41.2221 24.2059 41.2604 24.2827C41.2988 24.3594 41.3185 24.4441 41.318 24.5299V26.4424C41.3201 26.5578 41.2849 26.6707 41.2176 26.7645C41.1503 26.8582 41.0546 26.9278 40.9446 26.9627L35.2409 28.6298C34.2073 27.0127 35.0124 26.3559 35.4687 25.4946L40.6106 24.0047ZM13.1613 17.4656C13.1621 16.8598 13.4031 16.279 13.8315 15.8506C14.2598 15.4222 14.8407 15.1812 15.4465 15.1805H33.1849C33.791 15.1805 34.3722 15.4212 34.8008 15.8498C35.2293 16.2783 35.4701 16.8596 35.4701 17.4656C35.4701 18.0717 35.2293 18.6529 34.8008 19.0815C34.3722 19.51 33.791 19.7508 33.1849 19.7508H15.4465C14.8407 19.75 14.2598 19.509 13.8315 19.0807C13.4031 18.6523 13.1621 18.0715 13.1613 17.4656ZM40.1213 4.88531C40.1905 4.86395 40.2638 4.85915 40.3352 4.87129C40.4066 4.88342 40.4742 4.91216 40.5325 4.95519C40.5907 4.99822 40.6381 5.05433 40.6707 5.11901C40.7034 5.18369 40.7204 5.25513 40.7203 5.32758V7.14164C40.7209 7.23853 40.6905 7.33306 40.6336 7.41147C40.5767 7.48989 40.4962 7.54808 40.4039 7.57758L35.0271 9.14695C34.1081 7.67602 34.8218 7.10789 35.2577 6.29086L40.1213 4.88531ZM15.4029 3.6443C15.4031 3.52153 15.452 3.40385 15.5389 3.31711C15.6257 3.23036 15.7435 3.18164 15.8663 3.18164H32.9522C33.0748 3.18183 33.1924 3.23063 33.2791 3.31735C33.3659 3.40408 33.4147 3.52165 33.4149 3.6443C33.4632 4.29547 33.2763 4.94237 32.8882 5.4675V5.47172C32.1274 6.58477 31.5403 8.38688 33.0633 10.6523C33.4472 11.2233 33.7017 12.7195 32.955 12.7195H15.8691C15.1238 12.7195 15.3769 11.2191 15.7608 10.6516C17.2838 8.38547 16.6966 6.58406 15.9316 5.4668C15.5419 4.94268 15.3542 4.29562 15.4029 3.6443ZM7.9125 7.14164V5.32758C7.91275 5.25347 7.93075 5.1805 7.96498 5.11478C7.99922 5.04905 8.0487 4.99248 8.10928 4.9498C8.16986 4.90712 8.23979 4.87956 8.3132 4.86945C8.38661 4.85933 8.46138 4.86694 8.53125 4.89164L13.6022 6.36117C14.0845 7.23164 14.6857 7.75828 13.7646 9.19477L8.23664 7.5825C8.14246 7.55353 8.06009 7.49502 8.00172 7.41563C7.94335 7.33624 7.91207 7.24018 7.9125 7.14164ZM6.68203 26.4424V24.5299C6.68142 24.4424 6.70186 24.356 6.74161 24.278C6.78137 24.2 6.83928 24.1327 6.91047 24.0818C6.98167 24.0309 7.06405 23.9978 7.1507 23.9853C7.23735 23.9729 7.32571 23.9815 7.40836 24.0103L12.769 25.5614C13.2246 26.3953 13.9931 27.0591 12.9272 28.6826L7.06172 26.9648C6.95041 26.9306 6.85321 26.8612 6.78475 26.767C6.71628 26.6728 6.68023 26.5589 6.68203 26.4424ZM15.109 32.3747C14.242 32.3747 14.5219 30.7273 14.943 30.0994C16.5258 27.7446 15.9169 25.8757 15.1238 24.7162C14.7072 24.1538 14.5075 23.4601 14.5613 22.7623C14.5616 22.6164 14.6197 22.4765 14.7229 22.3734C14.8261 22.2702 14.9659 22.2121 15.1118 22.2117H33.0893C33.2352 22.2121 33.375 22.2702 33.4782 22.3734C33.5814 22.4765 33.6395 22.6164 33.6399 22.7623C33.6997 23.4609 33.4994 24.157 33.0774 24.717L33.0738 24.7219C32.2842 25.8764 31.676 27.7453 33.2595 30.1008C33.6813 30.7287 33.9626 32.3747 33.0921 32.3747H15.109ZM5.48672 46.4463V44.4143C5.48691 44.3084 5.51227 44.204 5.56071 44.1098C5.60914 44.0156 5.67926 43.9342 5.7653 43.8724C5.85133 43.8107 5.95082 43.7702 6.05555 43.7544C6.16029 43.7386 6.26729 43.7478 6.36773 43.7815L12.1017 45.4458C12.5939 46.3542 13.4686 47.1129 12.2564 48.9171L5.95359 47.0812C5.81827 47.039 5.69999 46.9546 5.616 46.8404C5.53201 46.7262 5.48672 46.5881 5.48672 46.4463ZM14.5388 52.8398C14.3625 52.8397 14.1935 52.7695 14.0689 52.6448C13.9443 52.5201 13.8743 52.351 13.8743 52.1747V51.7971C13.8646 51.2668 14.0114 50.7455 14.2962 50.298C15.9563 47.8301 15.3192 45.8684 14.4895 44.659C14.0353 44.0476 13.8169 43.2929 13.8743 42.5334C13.8745 42.3573 13.9445 42.1884 14.0691 42.0638C14.1937 41.9392 14.3626 41.8692 14.5388 41.869H33.6729C33.8491 41.8692 34.0181 41.9392 34.1428 42.0638C34.2675 42.1883 34.3377 42.3572 34.3381 42.5334C34.4012 43.2936 34.1819 44.0503 33.7221 44.659V44.6646C32.896 45.8726 32.2596 47.8287 33.919 50.298C34.2033 50.7457 34.3499 51.2669 34.3409 51.7971C34.3205 51.8674 34.4963 52.8419 33.6757 52.8419L14.5388 52.8398ZM3.89062 68.4105C3.70971 68.3558 3.55129 68.2441 3.43893 68.092C3.32657 67.94 3.26625 67.7558 3.26695 67.5668V65.3027C3.26734 65.1638 3.30056 65.0268 3.36392 64.9032C3.42728 64.7795 3.51898 64.6725 3.63154 64.591C3.7441 64.5095 3.87433 64.4558 4.01161 64.4342C4.14889 64.4126 4.28933 64.4237 4.42148 64.4667L10.8509 66.33C11.5997 67.7475 12.4069 68.2931 10.9999 70.4784L3.89062 68.4105ZM34.7656 74.8188H13.4721C13.2391 74.8186 13.0156 74.726 12.8508 74.5612C12.6861 74.3964 12.5934 74.173 12.5932 73.9399C12.5302 73.1837 12.7021 72.4264 13.0854 71.7715C14.8889 69.0905 14.2006 66.967 13.3013 65.6543C12.5173 64.5237 12.1059 62.3334 13.4707 62.3334H34.762C36.1113 62.3334 35.7324 64.4998 34.9315 65.6543L34.9273 65.6606C34.0315 66.9691 33.3438 69.0926 35.1467 71.7736C35.7837 72.7158 36.0094 74.8188 34.7635 74.8188H34.7656ZM44.7352 67.5682C44.7366 67.7538 44.6787 67.9349 44.5701 68.0854C44.4615 68.2359 44.3078 68.3478 44.1312 68.4049L37.2047 70.4236C37.1991 70.4159 37.1956 70.4067 37.1906 70.3983C35.7141 68.2059 36.8981 67.3003 37.4339 66.2498L43.5975 64.4618C43.7293 64.4217 43.8686 64.413 44.0043 64.4365C44.14 64.4599 44.2684 64.5149 44.379 64.597C44.4896 64.679 44.5795 64.7859 44.6413 64.9089C44.7032 65.032 44.7353 65.1678 44.7352 65.3055V67.5682Z" fill="url(#paint0_linear_47_439)"/>
<defs>
<linearGradient id="paint0_linear_47_439" x1="23.9993" y1="0.720703" x2="23.9993" y2="77.2791" gradientUnits="userSpaceOnUse">
<stop stop-color="#F39B14"/>
<stop offset="1" stop-color="#F36414"/>
</linearGradient>
</defs>
</svg>
