<svg width="80" height="76" viewBox="0 0 80 76" fill="none" xmlns="http://www.w3.org/2000/svg">
<path d="M64.5774 14.524C63.8453 13.3659 62.5702 12.6645 61.2 12.6667H57.3333C56.5969 12.6667 56 13.2635 56 13.9999C56 14.7363 56.5969 15.3332 57.3333 15.3332H61.2C61.6555 15.3365 62.0785 15.5692 62.3253 15.9518L76.2467 37.9998H3.75331L17.6706 15.9571C17.9174 15.5715 18.3422 15.3368 18.8 15.3331H22.6667C23.4031 15.3331 24 14.736 24 13.9998C24 13.2634 23.403 12.6665 22.6667 12.6665H18.8C17.4272 12.6673 16.1508 13.372 15.4186 14.5332L1.03737 37.3067C0.356743 38.3738 -0.00341312 39.6142 2.43788e-05 40.8799V55.3332C2.43788e-05 57.5423 1.79096 59.3332 4.00002 59.3332H76C78.2091 59.3332 80 57.5423 80 55.3332V40.8799C80.0039 39.6173 79.6456 38.3799 78.968 37.3146L64.5774 14.524ZM76 56.6667H4.00002C3.26362 56.6667 2.66674 56.0698 2.66674 55.3334V46.0001H9.33346C10.0699 46.0001 10.6667 45.4032 10.6667 44.6668C10.6667 43.9304 10.0697 43.3335 9.33346 43.3335H2.66674V40.8803C2.66674 40.8082 2.67737 40.7388 2.68143 40.667H77.3188C77.3188 40.739 77.3335 40.8084 77.3335 40.8803V43.3335H16C15.2636 43.3335 14.6667 43.9306 14.6667 44.6668C14.6667 45.4031 15.2638 46.0001 16 46.0001H77.3333V55.3334C77.3335 56.0696 76.7364 56.6667 76 56.6667Z" fill="url(#paint0_linear_47_512)"/>
<path d="M22.6667 20.6666C23.403 20.6666 23.9999 20.0696 23.9999 19.3333C23.9999 18.5969 23.403 18 22.6667 18C21.9303 18 21.3334 18.5969 21.3334 19.3333C21.3334 20.0696 21.9303 20.6666 22.6667 20.6666Z" fill="url(#paint1_linear_47_512)"/>
<path d="M34.6668 20.6666C35.4031 20.6666 36.0001 20.0696 36.0001 19.3333C36.0001 18.5969 35.4031 18 34.6668 18C33.9304 18 33.3335 18.5969 33.3335 19.3333C33.3335 20.0696 33.9304 20.6666 34.6668 20.6666Z" fill="url(#paint2_linear_47_512)"/>
<path d="M33.3333 27.3331C34.0696 27.3331 34.6666 26.7361 34.6666 25.9998C34.6666 25.2634 34.0696 24.6665 33.3333 24.6665C32.5969 24.6665 32 25.2634 32 25.9998C32 26.7361 32.5969 27.3331 33.3333 27.3331Z" fill="url(#paint3_linear_47_512)"/>
<path d="M32 34.0001C32.7364 34.0001 33.3333 33.4031 33.3333 32.6668C33.3333 31.9304 32.7364 31.3335 32 31.3335C31.2637 31.3335 30.6667 31.9304 30.6667 32.6668C30.6667 33.4031 31.2637 34.0001 32 34.0001Z" fill="url(#paint4_linear_47_512)"/>
<path d="M20 27.3331C20.7364 27.3331 21.3333 26.7361 21.3333 25.9998C21.3333 25.2634 20.7364 24.6665 20 24.6665C19.2637 24.6665 18.6667 25.2634 18.6667 25.9998C18.6667 26.7361 19.2637 27.3331 20 27.3331Z" fill="url(#paint5_linear_47_512)"/>
<path d="M17.3333 34.0001C18.0696 34.0001 18.6666 33.4031 18.6666 32.6668C18.6666 31.9304 18.0696 31.3335 17.3333 31.3335C16.5969 31.3335 16 31.9304 16 32.6668C16 33.4031 16.5969 34.0001 17.3333 34.0001Z" fill="url(#paint6_linear_47_512)"/>
<path d="M13.3333 64.6666C14.0696 64.6666 14.6666 64.0696 14.6666 63.3333C14.6666 62.5969 14.0696 62 13.3333 62C12.5969 62 12 62.5969 12 63.3333C12 64.0696 12.5969 64.6666 13.3333 64.6666Z" fill="url(#paint7_linear_47_512)"/>
<path d="M13.3333 70.0001C14.0696 70.0001 14.6666 69.4031 14.6666 68.6668C14.6666 67.9304 14.0696 67.3335 13.3333 67.3335C12.5969 67.3335 12 67.9304 12 68.6668C12 69.4031 12.5969 70.0001 13.3333 70.0001Z" fill="url(#paint8_linear_47_512)"/>
<path d="M13.3333 75.3331C14.0696 75.3331 14.6666 74.7361 14.6666 73.9998C14.6666 73.2634 14.0696 72.6665 13.3333 72.6665C12.5969 72.6665 12 73.2634 12 73.9998C12 74.7361 12.5969 75.3331 13.3333 75.3331Z" fill="url(#paint9_linear_47_512)"/>
<path d="M26.6668 64.6666C27.4031 64.6666 28.0001 64.0696 28.0001 63.3333C28.0001 62.5969 27.4031 62 26.6668 62C25.9304 62 25.3335 62.5969 25.3335 63.3333C25.3335 64.0696 25.9304 64.6666 26.6668 64.6666Z" fill="url(#paint10_linear_47_512)"/>
<path d="M26.6668 70.0001C27.4031 70.0001 28.0001 69.4031 28.0001 68.6668C28.0001 67.9304 27.4031 67.3335 26.6668 67.3335C25.9304 67.3335 25.3335 67.9304 25.3335 68.6668C25.3335 69.4031 25.9304 70.0001 26.6668 70.0001Z" fill="url(#paint11_linear_47_512)"/>
<path d="M26.6668 75.3331C27.4031 75.3331 28.0001 74.7361 28.0001 73.9998C28.0001 73.2634 27.4031 72.6665 26.6668 72.6665C25.9304 72.6665 25.3335 73.2634 25.3335 73.9998C25.3335 74.7361 25.9304 75.3331 26.6668 75.3331Z" fill="url(#paint12_linear_47_512)"/>
<path d="M39.9999 64.6666C40.7363 64.6666 41.3332 64.0696 41.3332 63.3333C41.3332 62.5969 40.7363 62 39.9999 62C39.2636 62 38.6666 62.5969 38.6666 63.3333C38.6666 64.0696 39.2636 64.6666 39.9999 64.6666Z" fill="url(#paint13_linear_47_512)"/>
<path d="M39.9999 70.0001C40.7363 70.0001 41.3332 69.4031 41.3332 68.6668C41.3332 67.9304 40.7363 67.3335 39.9999 67.3335C39.2636 67.3335 38.6666 67.9304 38.6666 68.6668C38.6666 69.4031 39.2636 70.0001 39.9999 70.0001Z" fill="url(#paint14_linear_47_512)"/>
<path d="M39.9999 75.3331C40.7363 75.3331 41.3332 74.7361 41.3332 73.9998C41.3332 73.2634 40.7363 72.6665 39.9999 72.6665C39.2636 72.6665 38.6666 73.2634 38.6666 73.9998C38.6666 74.7361 39.2636 75.3331 39.9999 75.3331Z" fill="url(#paint15_linear_47_512)"/>
<path d="M53.3333 64.6666C54.0696 64.6666 54.6666 64.0696 54.6666 63.3333C54.6666 62.5969 54.0696 62 53.3333 62C52.5969 62 52 62.5969 52 63.3333C52 64.0696 52.5969 64.6666 53.3333 64.6666Z" fill="url(#paint16_linear_47_512)"/>
<path d="M53.3333 70.0001C54.0696 70.0001 54.6666 69.4031 54.6666 68.6668C54.6666 67.9304 54.0696 67.3335 53.3333 67.3335C52.5969 67.3335 52 67.9304 52 68.6668C52 69.4031 52.5969 70.0001 53.3333 70.0001Z" fill="url(#paint17_linear_47_512)"/>
<path d="M53.3333 75.3331C54.0696 75.3331 54.6666 74.7361 54.6666 73.9998C54.6666 73.2634 54.0696 72.6665 53.3333 72.6665C52.5969 72.6665 52 73.2634 52 73.9998C52 74.7361 52.5969 75.3331 53.3333 75.3331Z" fill="url(#paint18_linear_47_512)"/>
<path d="M66.6667 64.6666C67.403 64.6666 67.9999 64.0696 67.9999 63.3333C67.9999 62.5969 67.403 62 66.6667 62C65.9303 62 65.3334 62.5969 65.3334 63.3333C65.3334 64.0696 65.9303 64.6666 66.6667 64.6666Z" fill="url(#paint19_linear_47_512)"/>
<path d="M66.6667 70.0001C67.403 70.0001 67.9999 69.4031 67.9999 68.6668C67.9999 67.9304 67.403 67.3335 66.6667 67.3335C65.9303 67.3335 65.3334 67.9304 65.3334 68.6668C65.3334 69.4031 65.9303 70.0001 66.6667 70.0001Z" fill="url(#paint20_linear_47_512)"/>
<path d="M66.6667 75.3331C67.403 75.3331 67.9999 74.7361 67.9999 73.9998C67.9999 73.2634 67.403 72.6665 66.6667 72.6665C65.9303 72.6665 65.3334 73.2634 65.3334 73.9998C65.3334 74.7361 65.9303 75.3331 66.6667 75.3331Z" fill="url(#paint21_linear_47_512)"/>
<path d="M57.3334 20.6666C58.0698 20.6666 58.6667 20.0696 58.6667 19.3333C58.6667 18.5969 58.0698 18 57.3334 18C56.5971 18 56.0001 18.5969 56.0001 19.3333C56.0001 20.0696 56.5971 20.6666 57.3334 20.6666Z" fill="url(#paint22_linear_47_512)"/>
<path d="M45.3335 20.6666C46.0699 20.6666 46.6668 20.0696 46.6668 19.3333C46.6668 18.5969 46.0699 18 45.3335 18C44.5972 18 44.0002 18.5969 44.0002 19.3333C44.0002 20.0696 44.5972 20.6666 45.3335 20.6666Z" fill="url(#paint23_linear_47_512)"/>
<path d="M46.6667 27.3331C47.403 27.3331 47.9999 26.7361 47.9999 25.9998C47.9999 25.2634 47.403 24.6665 46.6667 24.6665C45.9303 24.6665 45.3334 25.2634 45.3334 25.9998C45.3334 26.7361 45.9303 27.3331 46.6667 27.3331Z" fill="url(#paint24_linear_47_512)"/>
<path d="M48 34.0001C48.7364 34.0001 49.3333 33.4031 49.3333 32.6668C49.3333 31.9304 48.7364 31.3335 48 31.3335C47.2637 31.3335 46.6667 31.9304 46.6667 32.6668C46.6667 33.4031 47.2637 34.0001 48 34.0001Z" fill="url(#paint25_linear_47_512)"/>
<path d="M59.9999 27.3331C60.7363 27.3331 61.3332 26.7361 61.3332 25.9998C61.3332 25.2634 60.7363 24.6665 59.9999 24.6665C59.2636 24.6665 58.6666 25.2634 58.6666 25.9998C58.6666 26.7361 59.2636 27.3331 59.9999 27.3331Z" fill="url(#paint26_linear_47_512)"/>
<path d="M62.6668 34.0001C63.4031 34.0001 64.0001 33.4031 64.0001 32.6668C64.0001 31.9304 63.4031 31.3335 62.6668 31.3335C61.9304 31.3335 61.3335 31.9304 61.3335 32.6668C61.3335 33.4031 61.9304 34.0001 62.6668 34.0001Z" fill="url(#paint27_linear_47_512)"/>
<path fill-rule="evenodd" clip-rule="evenodd" d="M24.9427 6.9425L26.6668 5.21844V25.9998C26.6668 26.7362 27.2638 27.3331 28.0001 27.3331C28.7363 27.3331 29.3334 26.7361 29.3334 25.9998V5.21859L31.0574 6.94266C31.5805 7.44797 32.4123 7.44078 32.9265 6.92641C33.4409 6.41203 33.448 5.58047 32.9427 5.05734L28.9427 1.05734C28.4221 0.536875 27.578 0.536875 27.0574 1.05734L23.0574 5.05734C22.5521 5.58047 22.5593 6.41219 23.0737 6.92641C23.588 7.44063 24.4196 7.44781 24.9427 6.9425Z" fill="url(#paint28_linear_47_512)"/>
<path fill-rule="evenodd" clip-rule="evenodd" d="M36.9426 6.9425L38.6667 5.21844V25.9998C38.6667 26.7362 39.2637 27.3331 40 27.3331C40.7364 27.3331 41.3332 26.7361 41.3332 25.9998V5.21859L43.0573 6.94266C43.5804 7.44797 44.4121 7.44078 44.9264 6.92641C45.4407 6.41203 45.4479 5.58047 44.9426 5.05734L40.9426 1.05734C40.422 0.536875 39.5779 0.536875 39.0573 1.05734L35.0573 5.05734C34.552 5.58047 34.5592 6.41219 35.0735 6.92641C35.5879 7.44063 36.4195 7.44781 36.9426 6.9425Z" fill="url(#paint29_linear_47_512)"/>
<path fill-rule="evenodd" clip-rule="evenodd" d="M48.9427 6.9425L50.6668 5.21844V25.9998C50.6668 26.7362 51.2637 27.3331 52.0001 27.3331C52.7365 27.3331 53.3334 26.7361 53.3334 25.9998V5.21859L55.0574 6.94266C55.5805 7.44797 56.4123 7.44078 56.9265 6.92641C57.4409 6.41203 57.448 5.58047 56.9427 5.05734L52.9427 1.05734C52.4221 0.536875 51.578 0.536875 51.0574 1.05734L47.0574 5.05734C46.5521 5.58047 46.5593 6.41219 47.0737 6.92641C47.588 7.44063 48.4196 7.44781 48.9427 6.9425Z" fill="url(#paint30_linear_47_512)"/>
<defs>
<linearGradient id="paint0_linear_47_512" x1="40" y1="12.6665" x2="40" y2="59.3332" gradientUnits="userSpaceOnUse">
<stop stop-color="#F39B14"/>
<stop offset="1" stop-color="#F36414"/>
</linearGradient>
<linearGradient id="paint1_linear_47_512" x1="22.6667" y1="18" x2="22.6667" y2="20.6666" gradientUnits="userSpaceOnUse">
<stop stop-color="#F39B14"/>
<stop offset="1" stop-color="#F36414"/>
</linearGradient>
<linearGradient id="paint2_linear_47_512" x1="34.6668" y1="18" x2="34.6668" y2="20.6666" gradientUnits="userSpaceOnUse">
<stop stop-color="#F39B14"/>
<stop offset="1" stop-color="#F36414"/>
</linearGradient>
<linearGradient id="paint3_linear_47_512" x1="33.3333" y1="24.6665" x2="33.3333" y2="27.3331" gradientUnits="userSpaceOnUse">
<stop stop-color="#F39B14"/>
<stop offset="1" stop-color="#F36414"/>
</linearGradient>
<linearGradient id="paint4_linear_47_512" x1="32" y1="31.3335" x2="32" y2="34.0001" gradientUnits="userSpaceOnUse">
<stop stop-color="#F39B14"/>
<stop offset="1" stop-color="#F36414"/>
</linearGradient>
<linearGradient id="paint5_linear_47_512" x1="20" y1="24.6665" x2="20" y2="27.3331" gradientUnits="userSpaceOnUse">
<stop stop-color="#F39B14"/>
<stop offset="1" stop-color="#F36414"/>
</linearGradient>
<linearGradient id="paint6_linear_47_512" x1="17.3333" y1="31.3335" x2="17.3333" y2="34.0001" gradientUnits="userSpaceOnUse">
<stop stop-color="#F39B14"/>
<stop offset="1" stop-color="#F36414"/>
</linearGradient>
<linearGradient id="paint7_linear_47_512" x1="13.3333" y1="62" x2="13.3333" y2="64.6666" gradientUnits="userSpaceOnUse">
<stop stop-color="#F39B14"/>
<stop offset="1" stop-color="#F36414"/>
</linearGradient>
<linearGradient id="paint8_linear_47_512" x1="13.3333" y1="67.3335" x2="13.3333" y2="70.0001" gradientUnits="userSpaceOnUse">
<stop stop-color="#F39B14"/>
<stop offset="1" stop-color="#F36414"/>
</linearGradient>
<linearGradient id="paint9_linear_47_512" x1="13.3333" y1="72.6665" x2="13.3333" y2="75.3331" gradientUnits="userSpaceOnUse">
<stop stop-color="#F39B14"/>
<stop offset="1" stop-color="#F36414"/>
</linearGradient>
<linearGradient id="paint10_linear_47_512" x1="26.6668" y1="62" x2="26.6668" y2="64.6666" gradientUnits="userSpaceOnUse">
<stop stop-color="#F39B14"/>
<stop offset="1" stop-color="#F36414"/>
</linearGradient>
<linearGradient id="paint11_linear_47_512" x1="26.6668" y1="67.3335" x2="26.6668" y2="70.0001" gradientUnits="userSpaceOnUse">
<stop stop-color="#F39B14"/>
<stop offset="1" stop-color="#F36414"/>
</linearGradient>
<linearGradient id="paint12_linear_47_512" x1="26.6668" y1="72.6665" x2="26.6668" y2="75.3331" gradientUnits="userSpaceOnUse">
<stop stop-color="#F39B14"/>
<stop offset="1" stop-color="#F36414"/>
</linearGradient>
<linearGradient id="paint13_linear_47_512" x1="39.9999" y1="62" x2="39.9999" y2="64.6666" gradientUnits="userSpaceOnUse">
<stop stop-color="#F39B14"/>
<stop offset="1" stop-color="#F36414"/>
</linearGradient>
<linearGradient id="paint14_linear_47_512" x1="39.9999" y1="67.3335" x2="39.9999" y2="70.0001" gradientUnits="userSpaceOnUse">
<stop stop-color="#F39B14"/>
<stop offset="1" stop-color="#F36414"/>
</linearGradient>
<linearGradient id="paint15_linear_47_512" x1="39.9999" y1="72.6665" x2="39.9999" y2="75.3331" gradientUnits="userSpaceOnUse">
<stop stop-color="#F39B14"/>
<stop offset="1" stop-color="#F36414"/>
</linearGradient>
<linearGradient id="paint16_linear_47_512" x1="53.3333" y1="62" x2="53.3333" y2="64.6666" gradientUnits="userSpaceOnUse">
<stop stop-color="#F39B14"/>
<stop offset="1" stop-color="#F36414"/>
</linearGradient>
<linearGradient id="paint17_linear_47_512" x1="53.3333" y1="67.3335" x2="53.3333" y2="70.0001" gradientUnits="userSpaceOnUse">
<stop stop-color="#F39B14"/>
<stop offset="1" stop-color="#F36414"/>
</linearGradient>
<linearGradient id="paint18_linear_47_512" x1="53.3333" y1="72.6665" x2="53.3333" y2="75.3331" gradientUnits="userSpaceOnUse">
<stop stop-color="#F39B14"/>
<stop offset="1" stop-color="#F36414"/>
</linearGradient>
<linearGradient id="paint19_linear_47_512" x1="66.6667" y1="62" x2="66.6667" y2="64.6666" gradientUnits="userSpaceOnUse">
<stop stop-color="#F39B14"/>
<stop offset="1" stop-color="#F36414"/>
</linearGradient>
<linearGradient id="paint20_linear_47_512" x1="66.6667" y1="67.3335" x2="66.6667" y2="70.0001" gradientUnits="userSpaceOnUse">
<stop stop-color="#F39B14"/>
<stop offset="1" stop-color="#F36414"/>
</linearGradient>
<linearGradient id="paint21_linear_47_512" x1="66.6667" y1="72.6665" x2="66.6667" y2="75.3331" gradientUnits="userSpaceOnUse">
<stop stop-color="#F39B14"/>
<stop offset="1" stop-color="#F36414"/>
</linearGradient>
<linearGradient id="paint22_linear_47_512" x1="57.3334" y1="18" x2="57.3334" y2="20.6666" gradientUnits="userSpaceOnUse">
<stop stop-color="#F39B14"/>
<stop offset="1" stop-color="#F36414"/>
</linearGradient>
<linearGradient id="paint23_linear_47_512" x1="45.3335" y1="18" x2="45.3335" y2="20.6666" gradientUnits="userSpaceOnUse">
<stop stop-color="#F39B14"/>
<stop offset="1" stop-color="#F36414"/>
</linearGradient>
<linearGradient id="paint24_linear_47_512" x1="46.6667" y1="24.6665" x2="46.6667" y2="27.3331" gradientUnits="userSpaceOnUse">
<stop stop-color="#F39B14"/>
<stop offset="1" stop-color="#F36414"/>
</linearGradient>
<linearGradient id="paint25_linear_47_512" x1="48" y1="31.3335" x2="48" y2="34.0001" gradientUnits="userSpaceOnUse">
<stop stop-color="#F39B14"/>
<stop offset="1" stop-color="#F36414"/>
</linearGradient>
<linearGradient id="paint26_linear_47_512" x1="59.9999" y1="24.6665" x2="59.9999" y2="27.3331" gradientUnits="userSpaceOnUse">
<stop stop-color="#F39B14"/>
<stop offset="1" stop-color="#F36414"/>
</linearGradient>
<linearGradient id="paint27_linear_47_512" x1="62.6668" y1="31.3335" x2="62.6668" y2="34.0001" gradientUnits="userSpaceOnUse">
<stop stop-color="#F39B14"/>
<stop offset="1" stop-color="#F36414"/>
</linearGradient>
<linearGradient id="paint28_linear_47_512" x1="28.0001" y1="0.666992" x2="28.0001" y2="27.3331" gradientUnits="userSpaceOnUse">
<stop stop-color="#F39B14"/>
<stop offset="1" stop-color="#F36414"/>
</linearGradient>
<linearGradient id="paint29_linear_47_512" x1="40" y1="0.666992" x2="40" y2="27.3331" gradientUnits="userSpaceOnUse">
<stop stop-color="#F39B14"/>
<stop offset="1" stop-color="#F36414"/>
</linearGradient>
<linearGradient id="paint30_linear_47_512" x1="52.0001" y1="0.666992" x2="52.0001" y2="27.3331" gradientUnits="userSpaceOnUse">
<stop stop-color="#F39B14"/>
<stop offset="1" stop-color="#F36414"/>
</linearGradient>
</defs>
</svg>
