<svg width="60" height="44" viewBox="0 0 60 44" fill="none" xmlns="http://www.w3.org/2000/svg">
<path d="M0.817878 23.7787C4.36725 26.8232 8.39007 30.274 16.1714 30.274C23.953 30.2739 27.9761 26.8232 31.5256 23.7787C34.8823 20.8997 37.7813 18.4131 43.8279 18.4131C49.8747 18.4131 52.7737 20.8997 56.1303 23.7787C57.1129 24.6214 58.5925 24.5082 59.4352 23.5257C60.2779 22.5431 60.1647 21.0635 59.1821 20.2208C55.6326 17.1764 51.6095 13.7256 43.8279 13.7256C36.0463 13.7256 32.0233 17.1763 28.4738 20.2208C25.1171 23.0999 22.2181 25.5865 16.1714 25.5865C10.1249 25.5865 7.22628 23.1 3.86979 20.2208C2.88729 19.3781 1.40768 19.4912 0.56487 20.4738C-0.277943 21.4563 -0.164622 22.9361 0.817878 23.7787Z" fill="url(#paint0_linear_47_478)"/>
<path d="M0.817878 10.9594C4.36714 14.0039 8.38995 17.4546 16.1714 17.4546C23.953 17.4546 27.9761 14.0039 31.5256 10.9594C34.8823 8.08035 37.7812 5.59375 43.8279 5.59375C49.8744 5.59375 52.7734 8.08023 56.1303 10.9594C57.1129 11.8023 58.5924 11.6888 59.4351 10.7062C60.2779 9.72367 60.1643 8.24383 59.1818 7.40125C55.6323 4.35672 51.6093 0.90625 43.8279 0.90625C36.0463 0.90625 32.0233 4.35695 28.4738 7.40148C25.1171 10.2805 22.2181 12.7671 16.1714 12.7671C10.125 12.7671 7.22628 10.2807 3.86979 7.40148C2.88729 6.55867 1.40757 6.67188 0.56487 7.65449C-0.277943 8.63699 -0.164622 10.1167 0.817878 10.9594Z" fill="url(#paint1_linear_47_478)"/>
<path d="M59.1821 33.0406C55.6326 29.9962 51.6095 26.5454 43.8279 26.5454C36.0463 26.5454 32.0233 29.9961 28.4738 33.0406C25.1171 35.9197 22.2181 38.4063 16.1715 38.4063C10.1253 38.4063 7.22642 35.9198 3.86993 33.0409L3.8697 33.0406C2.8872 32.1982 1.40771 32.3114 0.564894 33.2938C-0.277801 34.2763 -0.164481 35.756 0.818019 36.5987C4.36739 39.6432 8.39032 43.0938 16.1715 43.0938C23.9531 43.0938 27.9761 39.6431 31.5256 36.5986C34.8823 33.7195 37.7813 31.2329 43.8279 31.2329C49.8747 31.2329 52.7737 33.7195 56.1303 36.5986C57.1129 37.4413 58.5925 37.3281 59.4352 36.3456C60.2779 35.363 60.1647 33.8833 59.1821 33.0406Z" fill="url(#paint2_linear_47_478)"/>
<defs>
<linearGradient id="paint0_linear_47_478" x1="30" y1="13.7256" x2="30" y2="30.274" gradientUnits="userSpaceOnUse">
<stop stop-color="#F39B14"/>
<stop offset="1" stop-color="#F36414"/>
</linearGradient>
<linearGradient id="paint1_linear_47_478" x1="29.9999" y1="0.90625" x2="29.9999" y2="17.4546" gradientUnits="userSpaceOnUse">
<stop stop-color="#F39B14"/>
<stop offset="1" stop-color="#F36414"/>
</linearGradient>
<linearGradient id="paint2_linear_47_478" x1="30.0001" y1="26.5454" x2="30.0001" y2="43.0938" gradientUnits="userSpaceOnUse">
<stop stop-color="#F39B14"/>
<stop offset="1" stop-color="#F36414"/>
</linearGradient>
</defs>
</svg>
