<svg width="47" height="73" viewBox="0 0 47 73" fill="none" xmlns="http://www.w3.org/2000/svg">
<path d="M40.6796 44.1726V10.6934C40.6796 4.79704 35.8607 0 29.9374 0C24.0142 0 19.1952 4.79704 19.1952 10.6934V44.1726C15.5403 47.2929 13.4661 51.7646 13.4661 56.6037C13.4661 65.6447 20.8551 73.0001 29.9374 73.0001C39.0197 73.0001 46.4088 65.6447 46.4088 56.6037C46.4088 51.7646 44.3345 47.2927 40.6796 44.1726ZM29.9374 68.7227C23.2244 68.7227 17.7629 63.286 17.7629 56.6035C17.7629 52.7558 19.5384 49.2214 22.634 46.9066C23.1741 46.5027 23.4921 45.8692 23.4921 45.1967V10.6934C23.4921 7.15557 26.3835 4.27734 29.9374 4.27734C33.4914 4.27734 36.3827 7.15557 36.3827 10.6934V45.1967C36.3827 45.8692 36.7007 46.5027 37.2408 46.9066C40.3364 49.2214 42.1119 52.7558 42.1119 56.6035C42.1119 63.286 36.6504 68.7227 29.9374 68.7227Z" fill="url(#paint0_linear_47_498)"/>
<path d="M32.0859 49.0606V10.6934C32.0859 9.51224 31.1239 8.55469 29.9374 8.55469C28.7509 8.55469 27.789 9.51224 27.789 10.6934V49.0606C24.4865 49.994 22.0598 53.021 22.0598 56.6035C22.0598 60.9275 25.5937 64.4453 29.9374 64.4453C34.2811 64.4453 37.815 60.9275 37.815 56.6035C37.815 53.021 35.3883 49.9942 32.0859 49.0606ZM29.9374 60.168C27.963 60.168 26.3567 58.569 26.3567 56.6035C26.3567 54.6381 27.963 53.0391 29.9374 53.0391C31.9118 53.0391 33.5181 54.6381 33.5181 56.6035C33.5181 58.569 31.9118 60.168 29.9374 60.168Z" fill="url(#paint1_linear_47_498)"/>
<path d="M9.88534 40.9199H2.72388C1.53737 40.9199 0.575439 41.8775 0.575439 43.0586C0.575439 44.2397 1.53737 45.1973 2.72388 45.1973H9.88534C11.0718 45.1973 12.0338 44.2397 12.0338 43.0586C12.0338 41.8775 11.0718 40.9199 9.88534 40.9199Z" fill="url(#paint2_linear_47_498)"/>
<path d="M2.72388 36.6426H7.02075C8.20726 36.6426 9.16919 35.685 9.16919 34.5039C9.16919 33.3228 8.20726 32.3652 7.02075 32.3652H2.72388C1.53737 32.3652 0.575439 33.3228 0.575439 34.5039C0.575439 35.685 1.53737 36.6426 2.72388 36.6426Z" fill="url(#paint3_linear_47_498)"/>
<path d="M9.88534 23.8105H2.72388C1.53737 23.8105 0.575439 24.7681 0.575439 25.9492C0.575439 27.1303 1.53737 28.0879 2.72388 28.0879H9.88534C11.0718 28.0879 12.0338 27.1303 12.0338 25.9492C12.0338 24.7681 11.0718 23.8105 9.88534 23.8105Z" fill="url(#paint4_linear_47_498)"/>
<path d="M2.72388 19.5332H7.02075C8.20726 19.5332 9.16919 18.5756 9.16919 17.3945C9.16919 16.2134 8.20726 15.2559 7.02075 15.2559H2.72388C1.53737 15.2559 0.575439 16.2134 0.575439 17.3945C0.575439 18.5756 1.53737 19.5332 2.72388 19.5332Z" fill="url(#paint5_linear_47_498)"/>
<path d="M9.88534 6.70117H2.72388C1.53737 6.70117 0.575439 7.65873 0.575439 8.83984C0.575439 10.021 1.53737 10.9785 2.72388 10.9785H9.88534C11.0718 10.9785 12.0338 10.021 12.0338 8.83984C12.0338 7.65873 11.0718 6.70117 9.88534 6.70117Z" fill="url(#paint6_linear_47_498)"/>
<defs>
<linearGradient id="paint0_linear_47_498" x1="29.9374" y1="0" x2="29.9374" y2="73.0001" gradientUnits="userSpaceOnUse">
<stop stop-color="#F39B14"/>
<stop offset="1" stop-color="#F36414"/>
</linearGradient>
<linearGradient id="paint1_linear_47_498" x1="29.9374" y1="8.55469" x2="29.9374" y2="64.4453" gradientUnits="userSpaceOnUse">
<stop stop-color="#F39B14"/>
<stop offset="1" stop-color="#F36414"/>
</linearGradient>
<linearGradient id="paint2_linear_47_498" x1="6.30461" y1="40.9199" x2="6.30461" y2="45.1973" gradientUnits="userSpaceOnUse">
<stop stop-color="#F39B14"/>
<stop offset="1" stop-color="#F36414"/>
</linearGradient>
<linearGradient id="paint3_linear_47_498" x1="4.87231" y1="32.3652" x2="4.87231" y2="36.6426" gradientUnits="userSpaceOnUse">
<stop stop-color="#F39B14"/>
<stop offset="1" stop-color="#F36414"/>
</linearGradient>
<linearGradient id="paint4_linear_47_498" x1="6.30461" y1="23.8105" x2="6.30461" y2="28.0879" gradientUnits="userSpaceOnUse">
<stop stop-color="#F39B14"/>
<stop offset="1" stop-color="#F36414"/>
</linearGradient>
<linearGradient id="paint5_linear_47_498" x1="4.87231" y1="15.2559" x2="4.87231" y2="19.5332" gradientUnits="userSpaceOnUse">
<stop stop-color="#F39B14"/>
<stop offset="1" stop-color="#F36414"/>
</linearGradient>
<linearGradient id="paint6_linear_47_498" x1="6.30461" y1="6.70117" x2="6.30461" y2="10.9785" gradientUnits="userSpaceOnUse">
<stop stop-color="#F39B14"/>
<stop offset="1" stop-color="#F36414"/>
</linearGradient>
</defs>
</svg>
