<svg width="80" height="51" viewBox="0 0 80 51" fill="none" xmlns="http://www.w3.org/2000/svg">
<path d="M75.9747 13.6663C75.26 13.6663 74.3747 13.7023 73.3813 13.7677L71.8947 8.55567C74.3613 8.34634 75.9427 8.33301 76 8.33301C78.2091 8.33301 80 6.54215 80 4.33301C80 2.12387 78.2091 0.333008 76 0.333008C74.888 0.333008 48.6373 0.498342 36.904 14.837C26.876 27.093 13.476 29.6663 4 29.6663C1.79086 29.6663 0 31.4572 0 33.6663C0 35.8755 1.79086 37.6663 4 37.6663C4.46533 37.6663 4.94933 37.6517 5.42933 37.641L6.94 42.9263C5.96667 42.9703 4.988 42.9997 4 42.9997C1.79086 42.9997 0 44.7905 0 46.9997C0 49.2088 1.79086 50.9997 4 50.9997C23.9133 50.9997 41.4667 42.9543 53.416 28.3463C56.8827 24.1143 68.9813 21.7103 76.0253 21.6663C78.2345 21.6524 80.014 19.8501 80 17.641C79.986 15.4319 78.1838 13.6524 75.9747 13.6663ZM70.676 14.009C69.1293 14.1757 67.4373 14.409 65.6627 14.737L64.196 9.60234C65.9867 9.26234 67.68 9.01434 69.1973 8.83168L70.676 14.009ZM38.5133 31.7423L36.9333 26.1797C38.376 24.9563 39.745 23.6487 41.0333 22.2637L42.7147 28.1303C41.3789 29.408 39.9765 30.6141 38.5133 31.7437V31.7423ZM17.324 41.5477L15.8667 36.445C17.4667 36.1063 19.0813 35.689 20.7173 35.169L22.1747 40.2423C20.5898 40.7472 18.9729 41.1823 17.324 41.5477ZM24.696 39.365L23.2373 34.2983C24.8192 33.6939 26.3676 33.0054 27.876 32.2357L29.3533 37.3783C27.8387 38.1037 26.2862 38.7659 24.696 39.365ZM31.7693 36.129L30.2733 30.9183C31.795 30.0256 33.264 29.0462 34.6733 27.985L36.2187 33.4077C34.7827 34.393 33.2947 35.2917 31.7693 36.129ZM44.8613 25.9623L43.1187 19.8783C44.3256 18.4315 45.7206 17.1526 47.2667 16.0757L48.8493 21.6277C48.2643 22.1341 47.7208 22.6865 47.224 23.2797C46.4653 24.2077 45.672 25.0957 44.8613 25.9623ZM51.128 19.9117L49.6093 14.5783C51.0916 13.7452 52.631 13.0181 54.216 12.4023L55.6827 17.545C54.0971 18.1933 52.5743 18.9855 51.1333 19.9117H51.128ZM58.1947 16.629L56.728 11.5023C58.3493 10.969 59.9813 10.521 61.5733 10.153L63.04 15.281C61.428 15.649 59.796 16.0943 58.1987 16.629H58.1947ZM2.66667 33.6663C2.66667 32.93 3.26362 32.333 4 32.333C14.052 32.333 28.2787 29.5903 38.968 16.5263C49.9093 3.15301 74.94 2.99967 76 2.99967C76.7364 2.99967 77.3333 3.59663 77.3333 4.33301C77.3333 5.06939 76.7364 5.66634 76 5.66634C71.3463 5.78102 66.7133 6.32917 62.1613 7.30367H62.1493C59.6532 7.83133 57.1939 8.51988 54.7867 9.36501C54.7707 9.36501 54.756 9.36501 54.74 9.36501C54.724 9.36501 54.6813 9.39967 54.648 9.41167C49.4613 11.2717 44.4347 14.0477 41.0307 18.2117C29.6813 32.0877 14.6293 34.9997 4 34.9997C3.26362 34.9997 2.66667 34.4027 2.66667 33.6663ZM8.16667 37.5183C9.79867 37.405 11.492 37.2197 13.2333 36.9397L14.7 42.065C13.0458 42.3557 11.3658 42.5779 9.66 42.7317L8.16667 37.5183ZM76.9493 18.5997C76.702 18.8533 76.3635 18.9973 76.0093 18.9997C70.2173 19.0357 55.968 21.0143 51.352 26.6583C39.916 40.6357 23.0987 48.333 4 48.333C3.26362 48.333 2.66667 47.7361 2.66667 46.9997C2.66667 46.2633 3.26362 45.6663 4 45.6663C5.56267 45.6663 7.104 45.593 8.63333 45.4863C8.64933 45.4863 8.66267 45.4943 8.67867 45.4943C8.73553 45.4896 8.79207 45.4816 8.848 45.4703C11.5012 45.2817 14.1398 44.9255 16.748 44.4037C19.2425 43.8991 21.7018 43.2342 24.1107 42.413C24.132 42.413 24.1547 42.413 24.176 42.4037C24.1973 42.3943 24.2333 42.369 24.2653 42.357C29.3386 40.6181 34.1343 38.1558 38.504 35.0463C38.5476 35.0187 38.5895 34.9884 38.6293 34.9557C42.6044 32.1111 46.1865 28.7541 49.2827 24.9717C54.5493 18.537 69.5507 16.373 76 16.333C76.5363 16.3342 77.0198 16.6566 77.227 17.1513C77.4342 17.646 77.3248 18.2167 76.9493 18.5997Z" fill="url(#paint0_linear_47_469)"/>
<defs>
<linearGradient id="paint0_linear_47_469" x1="40" y1="0.333008" x2="40" y2="50.9997" gradientUnits="userSpaceOnUse">
<stop stop-color="#F39B14"/>
<stop offset="1" stop-color="#F36414"/>
</linearGradient>
</defs>
</svg>
